<?xml version="1.0" encoding="utf-8" standalone="no"?>
<!DOCTYPE svg PUBLIC "-//W3C//DTD SVG 1.1//EN"
  "http://www.w3.org/Graphics/SVG/1.1/DTD/svg11.dtd">
<svg xmlns:xlink="http://www.w3.org/1999/xlink" width="235.447336pt" height="145.771015pt" viewBox="0 0 235.447336 145.771015" xmlns="http://www.w3.org/2000/svg" version="1.1">
 <metadata>
  <rdf:RDF xmlns:dc="http://purl.org/dc/elements/1.1/" xmlns:cc="http://creativecommons.org/ns#" xmlns:rdf="http://www.w3.org/1999/02/22-rdf-syntax-ns#">
   <cc:Work>
    <dc:type rdf:resource="http://purl.org/dc/dcmitype/StillImage"/>
    <dc:date>2025-12-20T13:49:46.121902</dc:date>
    <dc:format>image/svg+xml</dc:format>
    <dc:creator>
     <cc:Agent>
      <dc:title>Matplotlib v3.5.2, https://matplotlib.org/</dc:title>
     </cc:Agent>
    </dc:creator>
   </cc:Work>
  </rdf:RDF>
 </metadata>
 <defs>
  <style type="text/css">*{stroke-linejoin: round; stroke-linecap: butt}</style>
 </defs>
 <g id="figure_1">
  <g id="patch_1">
   <path d="M 0 145.771015 
L 235.447336 145.771015 
L 235.447336 0 
L 0 0 
z
" style="fill: #ffffff"/>
  </g>
  <g id="axes_1">
   <g id="patch_2">
    <path d="M 36.499371 120.230791 
L 226.436991 120.230791 
L 226.436991 3.6 
L 36.499371 3.6 
z
" style="fill: #ffffff"/>
   </g>
   <g id="line2d_1">
    <defs>
     <path id="m30235ff009" d="M 0 2.5 
C 0.663008 2.5 1.29895 2.236584 1.767767 1.767767 
C 2.236584 1.29895 2.5 0.663008 2.5 0 
C 2.5 -0.663008 2.236584 -1.29895 1.767767 -1.767767 
C 1.29895 -2.236584 0.663008 -2.5 0 -2.5 
C -0.663008 -2.5 -1.29895 -2.236584 -1.767767 -1.767767 
C -2.236584 -1.29895 -2.5 -0.663008 -2.5 0 
C -2.5 0.663008 -2.236584 1.29895 -1.767767 1.767767 
C -1.29895 2.236584 -0.663008 2.5 0 2.5 
z
" style="stroke: #ff8c00; stroke-width: 0.5"/>
    </defs>
    <g clip-path="url(#p589b4c1c04)">
     <use xlink:href="#m30235ff009" x="42.086007" y="100.931773" style="fill: #4173b3; stroke: #ff8c00; stroke-width: 0.5"/>
     <use xlink:href="#m30235ff009" x="47.672452" y="93.854128" style="fill: #4173b3; stroke: #ff8c00; stroke-width: 0.5"/>
     <use xlink:href="#m30235ff009" x="53.258897" y="88.212378" style="fill: #4173b3; stroke: #ff8c00; stroke-width: 0.5"/>
     <use xlink:href="#m30235ff009" x="58.845343" y="83.342379" style="fill: #4173b3; stroke: #ff8c00; stroke-width: 0.5"/>
     <use xlink:href="#m30235ff009" x="64.431788" y="78.977618" style="fill: #4173b3; stroke: #ff8c00; stroke-width: 0.5"/>
     <use xlink:href="#m30235ff009" x="70.018233" y="74.978217" style="fill: #4173b3; stroke: #ff8c00; stroke-width: 0.5"/>
     <use xlink:href="#m30235ff009" x="75.604678" y="71.259628" style="fill: #4173b3; stroke: #ff8c00; stroke-width: 0.5"/>
     <use xlink:href="#m30235ff009" x="81.191124" y="67.765994" style="fill: #4173b3; stroke: #ff8c00; stroke-width: 0.5"/>
     <use xlink:href="#m30235ff009" x="86.777569" y="64.45806" style="fill: #4173b3; stroke: #ff8c00; stroke-width: 0.5"/>
     <use xlink:href="#m30235ff009" x="92.364014" y="61.306958" style="fill: #4173b3; stroke: #ff8c00; stroke-width: 0.5"/>
     <use xlink:href="#m30235ff009" x="97.95046" y="58.290706" style="fill: #4173b3; stroke: #ff8c00; stroke-width: 0.5"/>
     <use xlink:href="#m30235ff009" x="103.536905" y="55.39209" style="fill: #4173b3; stroke: #ff8c00; stroke-width: 0.5"/>
     <use xlink:href="#m30235ff009" x="109.12335" y="52.597325" style="fill: #4173b3; stroke: #ff8c00; stroke-width: 0.5"/>
     <use xlink:href="#m30235ff009" x="114.709795" y="49.895166" style="fill: #4173b3; stroke: #ff8c00; stroke-width: 0.5"/>
     <use xlink:href="#m30235ff009" x="120.296241" y="47.276286" style="fill: #4173b3; stroke: #ff8c00; stroke-width: 0.5"/>
     <use xlink:href="#m30235ff009" x="125.882686" y="44.732853" style="fill: #4173b3; stroke: #ff8c00; stroke-width: 0.5"/>
     <use xlink:href="#m30235ff009" x="131.469131" y="42.258207" style="fill: #4173b3; stroke: #ff8c00; stroke-width: 0.5"/>
     <use xlink:href="#m30235ff009" x="137.055576" y="39.846628" style="fill: #4173b3; stroke: #ff8c00; stroke-width: 0.5"/>
     <use xlink:href="#m30235ff009" x="142.642022" y="37.49316" style="fill: #4173b3; stroke: #ff8c00; stroke-width: 0.5"/>
     <use xlink:href="#m30235ff009" x="148.228467" y="35.193472" style="fill: #4173b3; stroke: #ff8c00; stroke-width: 0.5"/>
     <use xlink:href="#m30235ff009" x="153.814912" y="32.943757" style="fill: #4173b3; stroke: #ff8c00; stroke-width: 0.5"/>
     <use xlink:href="#m30235ff009" x="159.401358" y="30.740641" style="fill: #4173b3; stroke: #ff8c00; stroke-width: 0.5"/>
     <use xlink:href="#m30235ff009" x="164.987803" y="28.581121" style="fill: #4173b3; stroke: #ff8c00; stroke-width: 0.5"/>
     <use xlink:href="#m30235ff009" x="170.574248" y="26.462506" style="fill: #4173b3; stroke: #ff8c00; stroke-width: 0.5"/>
     <use xlink:href="#m30235ff009" x="176.160693" y="24.382378" style="fill: #4173b3; stroke: #ff8c00; stroke-width: 0.5"/>
     <use xlink:href="#m30235ff009" x="181.747139" y="22.33855" style="fill: #4173b3; stroke: #ff8c00; stroke-width: 0.5"/>
     <use xlink:href="#m30235ff009" x="187.333584" y="20.329039" style="fill: #4173b3; stroke: #ff8c00; stroke-width: 0.5"/>
     <use xlink:href="#m30235ff009" x="192.920029" y="18.352038" style="fill: #4173b3; stroke: #ff8c00; stroke-width: 0.5"/>
     <use xlink:href="#m30235ff009" x="198.506475" y="16.405897" style="fill: #4173b3; stroke: #ff8c00; stroke-width: 0.5"/>
     <use xlink:href="#m30235ff009" x="204.09292" y="14.489101" style="fill: #4173b3; stroke: #ff8c00; stroke-width: 0.5"/>
     <use xlink:href="#m30235ff009" x="209.679365" y="12.600259" style="fill: #4173b3; stroke: #ff8c00; stroke-width: 0.5"/>
     <use xlink:href="#m30235ff009" x="215.26581" y="10.738087" style="fill: #4173b3; stroke: #ff8c00; stroke-width: 0.5"/>
     <use xlink:href="#m30235ff009" x="220.852256" y="8.9014" style="fill: #4173b3; stroke: #ff8c00; stroke-width: 0.5"/>
    </g>
   </g>
   <g id="line2d_2">
    <defs>
     <path id="mbf8d89a5ad" d="M 0 -3 
L -0.673542 -0.927051 
L -2.85317 -0.927051 
L -1.089814 0.354102 
L -1.763356 2.427051 
L -0 1.145898 
L 1.763356 2.427051 
L 1.089814 0.354102 
L 2.85317 -0.927051 
L 0.673542 -0.927051 
z
" style="stroke: #000000; stroke-width: 0.5; stroke-linejoin: bevel"/>
    </defs>
    <g clip-path="url(#p589b4c1c04)">
     <use xlink:href="#mbf8d89a5ad" x="42.086007" y="101.030436" style="fill: #ffffff; stroke: #000000; stroke-width: 0.5; stroke-linejoin: bevel"/>
     <use xlink:href="#mbf8d89a5ad" x="47.672452" y="93.957791" style="fill: #ffffff; stroke: #000000; stroke-width: 0.5; stroke-linejoin: bevel"/>
     <use xlink:href="#mbf8d89a5ad" x="53.258897" y="88.318966" style="fill: #ffffff; stroke: #000000; stroke-width: 0.5; stroke-linejoin: bevel"/>
     <use xlink:href="#mbf8d89a5ad" x="58.845343" y="83.451043" style="fill: #ffffff; stroke: #000000; stroke-width: 0.5; stroke-linejoin: bevel"/>
     <use xlink:href="#mbf8d89a5ad" x="64.431788" y="79.087892" style="fill: #ffffff; stroke: #000000; stroke-width: 0.5; stroke-linejoin: bevel"/>
     <use xlink:href="#mbf8d89a5ad" x="70.018233" y="75.089806" style="fill: #ffffff; stroke: #000000; stroke-width: 0.5; stroke-linejoin: bevel"/>
     <use xlink:href="#mbf8d89a5ad" x="75.604678" y="71.37233" style="fill: #ffffff; stroke: #000000; stroke-width: 0.5; stroke-linejoin: bevel"/>
     <use xlink:href="#mbf8d89a5ad" x="81.191124" y="67.879659" style="fill: #ffffff; stroke: #000000; stroke-width: 0.5; stroke-linejoin: bevel"/>
     <use xlink:href="#mbf8d89a5ad" x="86.777569" y="64.572574" style="fill: #ffffff; stroke: #000000; stroke-width: 0.5; stroke-linejoin: bevel"/>
     <use xlink:href="#mbf8d89a5ad" x="92.364014" y="61.422233" style="fill: #ffffff; stroke: #000000; stroke-width: 0.5; stroke-linejoin: bevel"/>
     <use xlink:href="#mbf8d89a5ad" x="97.95046" y="58.406668" style="fill: #ffffff; stroke: #000000; stroke-width: 0.5; stroke-linejoin: bevel"/>
     <use xlink:href="#mbf8d89a5ad" x="103.536905" y="55.50868" style="fill: #ffffff; stroke: #000000; stroke-width: 0.5; stroke-linejoin: bevel"/>
     <use xlink:href="#mbf8d89a5ad" x="109.12335" y="52.714493" style="fill: #ffffff; stroke: #000000; stroke-width: 0.5; stroke-linejoin: bevel"/>
     <use xlink:href="#mbf8d89a5ad" x="114.709795" y="50.012868" style="fill: #ffffff; stroke: #000000; stroke-width: 0.5; stroke-linejoin: bevel"/>
     <use xlink:href="#mbf8d89a5ad" x="120.296241" y="47.394486" style="fill: #ffffff; stroke: #000000; stroke-width: 0.5; stroke-linejoin: bevel"/>
     <use xlink:href="#mbf8d89a5ad" x="125.882686" y="44.851519" style="fill: #ffffff; stroke: #000000; stroke-width: 0.5; stroke-linejoin: bevel"/>
     <use xlink:href="#mbf8d89a5ad" x="131.469131" y="42.37731" style="fill: #ffffff; stroke: #000000; stroke-width: 0.5; stroke-linejoin: bevel"/>
     <use xlink:href="#mbf8d89a5ad" x="137.055576" y="39.966143" style="fill: #ffffff; stroke: #000000; stroke-width: 0.5; stroke-linejoin: bevel"/>
     <use xlink:href="#mbf8d89a5ad" x="142.642022" y="37.613065" style="fill: #ffffff; stroke: #000000; stroke-width: 0.5; stroke-linejoin: bevel"/>
     <use xlink:href="#mbf8d89a5ad" x="148.228467" y="35.313748" style="fill: #ffffff; stroke: #000000; stroke-width: 0.5; stroke-linejoin: bevel"/>
     <use xlink:href="#mbf8d89a5ad" x="153.814912" y="33.064384" style="fill: #ffffff; stroke: #000000; stroke-width: 0.5; stroke-linejoin: bevel"/>
     <use xlink:href="#mbf8d89a5ad" x="159.401358" y="30.861604" style="fill: #ffffff; stroke: #000000; stroke-width: 0.5; stroke-linejoin: bevel"/>
     <use xlink:href="#mbf8d89a5ad" x="164.987803" y="28.702404" style="fill: #ffffff; stroke: #000000; stroke-width: 0.5; stroke-linejoin: bevel"/>
     <use xlink:href="#mbf8d89a5ad" x="170.574248" y="26.584097" style="fill: #ffffff; stroke: #000000; stroke-width: 0.5; stroke-linejoin: bevel"/>
     <use xlink:href="#mbf8d89a5ad" x="176.160693" y="24.504263" style="fill: #ffffff; stroke: #000000; stroke-width: 0.5; stroke-linejoin: bevel"/>
     <use xlink:href="#mbf8d89a5ad" x="181.747139" y="22.460719" style="fill: #ffffff; stroke: #000000; stroke-width: 0.5; stroke-linejoin: bevel"/>
     <use xlink:href="#mbf8d89a5ad" x="187.333584" y="20.45148" style="fill: #ffffff; stroke: #000000; stroke-width: 0.5; stroke-linejoin: bevel"/>
     <use xlink:href="#mbf8d89a5ad" x="192.920029" y="18.474741" style="fill: #ffffff; stroke: #000000; stroke-width: 0.5; stroke-linejoin: bevel"/>
     <use xlink:href="#mbf8d89a5ad" x="198.506475" y="16.528853" style="fill: #ffffff; stroke: #000000; stroke-width: 0.5; stroke-linejoin: bevel"/>
     <use xlink:href="#mbf8d89a5ad" x="204.09292" y="14.612301" style="fill: #ffffff; stroke: #000000; stroke-width: 0.5; stroke-linejoin: bevel"/>
     <use xlink:href="#mbf8d89a5ad" x="209.679365" y="12.723696" style="fill: #ffffff; stroke: #000000; stroke-width: 0.5; stroke-linejoin: bevel"/>
     <use xlink:href="#mbf8d89a5ad" x="215.26581" y="10.861753" style="fill: #ffffff; stroke: #000000; stroke-width: 0.5; stroke-linejoin: bevel"/>
     <use xlink:href="#mbf8d89a5ad" x="220.852256" y="9.025288" style="fill: #ffffff; stroke: #000000; stroke-width: 0.5; stroke-linejoin: bevel"/>
    </g>
   </g>
   <g id="line2d_3">
    <defs>
     <path id="md0cfe30c26" d="M 0 2.5 
C 0.663008 2.5 1.29895 2.236584 1.767767 1.767767 
C 2.236584 1.29895 2.5 0.663008 2.5 0 
C 2.5 -0.663008 2.236584 -1.29895 1.767767 -1.767767 
C 1.29895 -2.236584 0.663008 -2.5 0 -2.5 
C -0.663008 -2.5 -1.29895 -2.236584 -1.767767 -1.767767 
C -2.236584 -1.29895 -2.5 -0.663008 -2.5 0 
C -2.5 0.663008 -2.236584 1.29895 -1.767767 1.767767 
C -1.29895 2.236584 -0.663008 2.5 0 2.5 
z
" style="stroke: #e85c47; stroke-width: 0.5"/>
    </defs>
    <g clip-path="url(#p589b4c1c04)">
     <use xlink:href="#md0cfe30c26" x="42.086007" y="114.929392" style="fill: #66cdaa; stroke: #e85c47; stroke-width: 0.5"/>
     <use xlink:href="#md0cfe30c26" x="47.672452" y="114.919415" style="fill: #66cdaa; stroke: #e85c47; stroke-width: 0.5"/>
     <use xlink:href="#md0cfe30c26" x="53.258897" y="114.913575" style="fill: #66cdaa; stroke: #e85c47; stroke-width: 0.5"/>
     <use xlink:href="#md0cfe30c26" x="58.845343" y="114.909431" style="fill: #66cdaa; stroke: #e85c47; stroke-width: 0.5"/>
     <use xlink:href="#md0cfe30c26" x="64.431788" y="114.906215" style="fill: #66cdaa; stroke: #e85c47; stroke-width: 0.5"/>
     <use xlink:href="#md0cfe30c26" x="70.018233" y="114.903588" style="fill: #66cdaa; stroke: #e85c47; stroke-width: 0.5"/>
     <use xlink:href="#md0cfe30c26" x="75.604678" y="114.901366" style="fill: #66cdaa; stroke: #e85c47; stroke-width: 0.5"/>
     <use xlink:href="#md0cfe30c26" x="81.191124" y="114.899441" style="fill: #66cdaa; stroke: #e85c47; stroke-width: 0.5"/>
     <use xlink:href="#md0cfe30c26" x="86.777569" y="114.897744" style="fill: #66cdaa; stroke: #e85c47; stroke-width: 0.5"/>
     <use xlink:href="#md0cfe30c26" x="92.364014" y="114.896225" style="fill: #66cdaa; stroke: #e85c47; stroke-width: 0.5"/>
     <use xlink:href="#md0cfe30c26" x="97.95046" y="114.894851" style="fill: #66cdaa; stroke: #e85c47; stroke-width: 0.5"/>
     <use xlink:href="#md0cfe30c26" x="103.536905" y="114.893596" style="fill: #66cdaa; stroke: #e85c47; stroke-width: 0.5"/>
     <use xlink:href="#md0cfe30c26" x="109.12335" y="114.892442" style="fill: #66cdaa; stroke: #e85c47; stroke-width: 0.5"/>
     <use xlink:href="#md0cfe30c26" x="114.709795" y="114.891374" style="fill: #66cdaa; stroke: #e85c47; stroke-width: 0.5"/>
     <use xlink:href="#md0cfe30c26" x="120.296241" y="114.890379" style="fill: #66cdaa; stroke: #e85c47; stroke-width: 0.5"/>
     <use xlink:href="#md0cfe30c26" x="125.882686" y="114.889449" style="fill: #66cdaa; stroke: #e85c47; stroke-width: 0.5"/>
     <use xlink:href="#md0cfe30c26" x="131.469131" y="114.888575" style="fill: #66cdaa; stroke: #e85c47; stroke-width: 0.5"/>
     <use xlink:href="#md0cfe30c26" x="137.055576" y="114.88775" style="fill: #66cdaa; stroke: #e85c47; stroke-width: 0.5"/>
     <use xlink:href="#md0cfe30c26" x="142.642022" y="114.886971" style="fill: #66cdaa; stroke: #e85c47; stroke-width: 0.5"/>
     <use xlink:href="#md0cfe30c26" x="148.228467" y="114.886231" style="fill: #66cdaa; stroke: #e85c47; stroke-width: 0.5"/>
     <use xlink:href="#md0cfe30c26" x="153.814912" y="114.885528" style="fill: #66cdaa; stroke: #e85c47; stroke-width: 0.5"/>
     <use xlink:href="#md0cfe30c26" x="159.401358" y="114.884857" style="fill: #66cdaa; stroke: #e85c47; stroke-width: 0.5"/>
     <use xlink:href="#md0cfe30c26" x="164.987803" y="114.884216" style="fill: #66cdaa; stroke: #e85c47; stroke-width: 0.5"/>
     <use xlink:href="#md0cfe30c26" x="170.574248" y="114.883602" style="fill: #66cdaa; stroke: #e85c47; stroke-width: 0.5"/>
     <use xlink:href="#md0cfe30c26" x="176.160693" y="114.883013" style="fill: #66cdaa; stroke: #e85c47; stroke-width: 0.5"/>
     <use xlink:href="#md0cfe30c26" x="181.747139" y="114.882448" style="fill: #66cdaa; stroke: #e85c47; stroke-width: 0.5"/>
     <use xlink:href="#md0cfe30c26" x="187.333584" y="114.881903" style="fill: #66cdaa; stroke: #e85c47; stroke-width: 0.5"/>
     <use xlink:href="#md0cfe30c26" x="192.920029" y="114.881379" style="fill: #66cdaa; stroke: #e85c47; stroke-width: 0.5"/>
     <use xlink:href="#md0cfe30c26" x="198.506475" y="114.880873" style="fill: #66cdaa; stroke: #e85c47; stroke-width: 0.5"/>
     <use xlink:href="#md0cfe30c26" x="204.09292" y="114.880384" style="fill: #66cdaa; stroke: #e85c47; stroke-width: 0.5"/>
     <use xlink:href="#md0cfe30c26" x="209.679365" y="114.879911" style="fill: #66cdaa; stroke: #e85c47; stroke-width: 0.5"/>
     <use xlink:href="#md0cfe30c26" x="215.26581" y="114.879453" style="fill: #66cdaa; stroke: #e85c47; stroke-width: 0.5"/>
     <use xlink:href="#md0cfe30c26" x="220.852256" y="114.87901" style="fill: #66cdaa; stroke: #e85c47; stroke-width: 0.5"/>
    </g>
   </g>
   <g id="matplotlib.axis_1">
    <g id="xtick_1">
     <g id="line2d_4">
      <defs>
       <path id="m93460f2087" d="M 0 0 
L 0 -4 
" style="stroke: #000000; stroke-width: 0.5"/>
      </defs>
      <g>
       <use xlink:href="#m93460f2087" x="36.499371" y="120.230791" style="stroke: #000000; stroke-width: 0.5"/>
      </g>
     </g>
     <g id="line2d_5">
      <defs>
       <path id="ma5fb38fd42" d="M 0 0 
L 0 4 
" style="stroke: #000000; stroke-width: 0.5"/>
      </defs>
      <g>
       <use xlink:href="#ma5fb38fd42" x="36.499371" y="3.6" style="stroke: #000000; stroke-width: 0.5"/>
      </g>
     </g>
     <g id="text_1">
      <!-- $\mathdefault{0.0}$ -->
      <g transform="translate(31.089027 129.765593)scale(0.08 -0.08)">
       <defs>
        <path id="CMR17-30" d="M 2688 2038 
C 2688 2430 2682 3099 2413 3613 
C 2176 4063 1798 4224 1466 4224 
C 1158 4224 768 4082 525 3620 
C 269 3137 243 2539 243 2038 
C 243 1671 250 1112 448 623 
C 723 -39 1216 -128 1466 -128 
C 1760 -128 2208 -7 2470 604 
C 2662 1048 2688 1568 2688 2038 
z
M 1466 -26 
C 1056 -26 813 328 723 816 
C 653 1196 653 1749 653 2109 
C 653 2604 653 3015 736 3407 
C 858 3954 1216 4121 1466 4121 
C 1728 4121 2067 3947 2189 3420 
C 2272 3054 2278 2623 2278 2109 
C 2278 1691 2278 1176 2202 797 
C 2067 96 1690 -26 1466 -26 
z
" transform="scale(0.015625)"/>
        <path id="CMMI12-3a" d="M 1178 307 
C 1178 492 1024 620 870 620 
C 685 620 557 467 557 313 
C 557 128 710 0 864 0 
C 1050 0 1178 153 1178 307 
z
" transform="scale(0.015625)"/>
       </defs>
       <use xlink:href="#CMR17-30" transform="scale(0.996264)"/>
       <use xlink:href="#CMMI12-3a" transform="translate(45.690477 0)scale(0.996264)"/>
       <use xlink:href="#CMR17-30" transform="translate(72.787654 0)scale(0.996264)"/>
      </g>
     </g>
    </g>
    <g id="xtick_2">
     <g id="line2d_6">
      <g>
       <use xlink:href="#m93460f2087" x="74.486895" y="120.230791" style="stroke: #000000; stroke-width: 0.5"/>
      </g>
     </g>
     <g id="line2d_7">
      <g>
       <use xlink:href="#ma5fb38fd42" x="74.486895" y="3.6" style="stroke: #000000; stroke-width: 0.5"/>
      </g>
     </g>
     <g id="text_2">
      <!-- $\mathdefault{0.2}$ -->
      <g transform="translate(69.076551 129.765593)scale(0.08 -0.08)">
       <defs>
        <path id="CMR17-32" d="M 2669 990 
L 2554 990 
C 2490 537 2438 460 2413 422 
C 2381 371 1920 371 1830 371 
L 602 371 
C 832 620 1280 1073 1824 1596 
C 2214 1966 2669 2400 2669 3033 
C 2669 3788 2067 4224 1395 4224 
C 691 4224 262 3603 262 3027 
C 262 2777 448 2745 525 2745 
C 589 2745 781 2783 781 3007 
C 781 3206 614 3264 525 3264 
C 486 3264 448 3257 422 3244 
C 544 3788 915 4057 1306 4057 
C 1862 4057 2227 3616 2227 3033 
C 2227 2477 1901 1998 1536 1583 
L 262 147 
L 262 0 
L 2515 0 
L 2669 990 
z
" transform="scale(0.015625)"/>
       </defs>
       <use xlink:href="#CMR17-30" transform="scale(0.996264)"/>
       <use xlink:href="#CMMI12-3a" transform="translate(45.690477 0)scale(0.996264)"/>
       <use xlink:href="#CMR17-32" transform="translate(72.787654 0)scale(0.996264)"/>
      </g>
     </g>
    </g>
    <g id="xtick_3">
     <g id="line2d_8">
      <g>
       <use xlink:href="#m93460f2087" x="112.474419" y="120.230791" style="stroke: #000000; stroke-width: 0.5"/>
      </g>
     </g>
     <g id="line2d_9">
      <g>
       <use xlink:href="#ma5fb38fd42" x="112.474419" y="3.6" style="stroke: #000000; stroke-width: 0.5"/>
      </g>
     </g>
     <g id="text_3">
      <!-- $\mathdefault{0.4}$ -->
      <g transform="translate(107.064075 129.765593)scale(0.08 -0.08)">
       <defs>
        <path id="CMR17-34" d="M 2150 4147 
C 2150 4281 2144 4288 2029 4288 
L 128 1254 
L 128 1088 
L 1779 1088 
L 1779 460 
C 1779 230 1766 166 1318 166 
L 1197 166 
L 1197 0 
C 1402 12 1747 12 1965 12 
C 2182 12 2528 12 2733 0 
L 2733 166 
L 2611 166 
C 2163 166 2150 230 2150 460 
L 2150 1088 
L 2803 1088 
L 2803 1254 
L 2150 1254 
L 2150 4147 
z
M 1798 3723 
L 1798 1254 
L 256 1254 
L 1798 3723 
z
" transform="scale(0.015625)"/>
       </defs>
       <use xlink:href="#CMR17-30" transform="scale(0.996264)"/>
       <use xlink:href="#CMMI12-3a" transform="translate(45.690477 0)scale(0.996264)"/>
       <use xlink:href="#CMR17-34" transform="translate(72.787654 0)scale(0.996264)"/>
      </g>
     </g>
    </g>
    <g id="xtick_4">
     <g id="line2d_10">
      <g>
       <use xlink:href="#m93460f2087" x="150.461943" y="120.230791" style="stroke: #000000; stroke-width: 0.5"/>
      </g>
     </g>
     <g id="line2d_11">
      <g>
       <use xlink:href="#ma5fb38fd42" x="150.461943" y="3.6" style="stroke: #000000; stroke-width: 0.5"/>
      </g>
     </g>
     <g id="text_4">
      <!-- $\mathdefault{0.6}$ -->
      <g transform="translate(145.051599 129.765593)scale(0.08 -0.08)">
       <defs>
        <path id="CMR17-36" d="M 678 2198 
C 678 3712 1395 4076 1811 4076 
C 1946 4076 2272 4049 2400 3782 
C 2298 3782 2106 3782 2106 3558 
C 2106 3385 2246 3328 2336 3328 
C 2394 3328 2566 3353 2566 3571 
C 2566 3987 2246 4224 1805 4224 
C 1043 4224 243 3411 243 2011 
C 243 257 966 -128 1478 -128 
C 2099 -128 2688 431 2688 1295 
C 2688 2101 2170 2688 1517 2688 
C 1126 2688 838 2430 678 1979 
L 678 2198 
z
M 1478 25 
C 691 25 691 1212 691 1450 
C 691 1914 909 2585 1504 2585 
C 1613 2585 1926 2585 2138 2140 
C 2253 1889 2253 1624 2253 1302 
C 2253 954 2253 696 2118 438 
C 1978 173 1773 25 1478 25 
z
" transform="scale(0.015625)"/>
       </defs>
       <use xlink:href="#CMR17-30" transform="scale(0.996264)"/>
       <use xlink:href="#CMMI12-3a" transform="translate(45.690477 0)scale(0.996264)"/>
       <use xlink:href="#CMR17-36" transform="translate(72.787654 0)scale(0.996264)"/>
      </g>
     </g>
    </g>
    <g id="xtick_5">
     <g id="line2d_12">
      <g>
       <use xlink:href="#m93460f2087" x="188.449467" y="120.230791" style="stroke: #000000; stroke-width: 0.5"/>
      </g>
     </g>
     <g id="line2d_13">
      <g>
       <use xlink:href="#ma5fb38fd42" x="188.449467" y="3.6" style="stroke: #000000; stroke-width: 0.5"/>
      </g>
     </g>
     <g id="text_5">
      <!-- $\mathdefault{0.8}$ -->
      <g transform="translate(183.039123 129.765593)scale(0.08 -0.08)">
       <defs>
        <path id="CMR17-38" d="M 1741 2289 
C 2144 2494 2554 2803 2554 3298 
C 2554 3884 1990 4224 1472 4224 
C 890 4224 378 3800 378 3215 
C 378 3054 416 2777 666 2533 
C 730 2469 998 2276 1171 2154 
C 883 2006 211 1652 211 945 
C 211 282 838 -128 1459 -128 
C 2144 -128 2720 366 2720 1022 
C 2720 1607 2330 1877 2074 2051 
L 1741 2289 
z
M 902 2855 
C 851 2887 595 3086 595 3388 
C 595 3781 998 4076 1459 4076 
C 1965 4076 2336 3716 2336 3298 
C 2336 2700 1670 2359 1638 2359 
C 1632 2359 1626 2359 1574 2398 
L 902 2855 
z
M 2080 1536 
C 2176 1466 2483 1253 2483 861 
C 2483 385 2010 25 1472 25 
C 890 25 448 443 448 951 
C 448 1459 838 1884 1280 2083 
L 2080 1536 
z
" transform="scale(0.015625)"/>
       </defs>
       <use xlink:href="#CMR17-30" transform="scale(0.996264)"/>
       <use xlink:href="#CMMI12-3a" transform="translate(45.690477 0)scale(0.996264)"/>
       <use xlink:href="#CMR17-38" transform="translate(72.787654 0)scale(0.996264)"/>
      </g>
     </g>
    </g>
    <g id="xtick_6">
     <g id="line2d_14">
      <g>
       <use xlink:href="#m93460f2087" x="226.436991" y="120.230791" style="stroke: #000000; stroke-width: 0.5"/>
      </g>
     </g>
     <g id="line2d_15">
      <g>
       <use xlink:href="#ma5fb38fd42" x="226.436991" y="3.6" style="stroke: #000000; stroke-width: 0.5"/>
      </g>
     </g>
     <g id="text_6">
      <!-- $\mathdefault{1.0}$ -->
      <g transform="translate(221.026647 129.765593)scale(0.08 -0.08)">
       <defs>
        <path id="CMR17-31" d="M 1702 4083 
C 1702 4217 1696 4224 1606 4224 
C 1357 3927 979 3833 621 3820 
C 602 3820 570 3820 563 3808 
C 557 3795 557 3782 557 3648 
C 755 3648 1088 3686 1344 3839 
L 1344 467 
C 1344 243 1331 166 781 166 
L 589 166 
L 589 0 
C 896 6 1216 12 1523 12 
C 1830 12 2150 6 2458 0 
L 2458 166 
L 2266 166 
C 1715 166 1702 236 1702 467 
L 1702 4083 
z
" transform="scale(0.015625)"/>
       </defs>
       <use xlink:href="#CMR17-31" transform="scale(0.996264)"/>
       <use xlink:href="#CMMI12-3a" transform="translate(45.690477 0)scale(0.996264)"/>
       <use xlink:href="#CMR17-30" transform="translate(72.787654 0)scale(0.996264)"/>
      </g>
     </g>
    </g>
    <g id="text_7">
     <!-- ${\ell}$ -->
     <g transform="translate(129.392621 140.233837)scale(0.1 -0.1)">
      <defs>
       <path id="CMMI12-60" d="M 589 1091 
C 186 698 83 603 83 577 
C 83 552 109 508 154 508 
C 186 508 550 856 602 913 
C 640 488 800 -64 1299 -64 
C 1555 -64 1786 95 1888 171 
C 1971 235 2278 495 2278 552 
C 2278 584 2246 622 2214 622 
C 2189 622 2093 527 2067 501 
C 1843 286 1562 64 1306 64 
C 960 64 915 558 915 901 
C 915 964 915 1231 960 1281 
C 1338 1668 2522 2880 2522 4002 
C 2522 4256 2426 4480 2150 4480 
C 1555 4480 1037 3171 947 2930 
C 922 2867 550 1890 589 1091 
z
M 973 1484 
C 979 1522 1267 3184 1805 4072 
C 1914 4243 2022 4351 2150 4351 
C 2368 4351 2381 4148 2381 4009 
C 2381 3787 2317 3216 1760 2417 
C 1594 2182 1338 1865 973 1484 
z
" transform="scale(0.015625)"/>
      </defs>
      <use xlink:href="#CMMI12-60" transform="scale(0.996264)"/>
     </g>
    </g>
    <g id="text_8">
     <!-- $\times\mathdefault{10^{6}}\mathdefault{}$ -->
     <g transform="translate(207.729207 140.260847)scale(0.08 -0.08)">
      <defs>
       <path id="CMSY10-2" d="M 2490 1775 
L 1210 3046 
C 1133 3123 1120 3136 1069 3136 
C 1005 3136 941 3078 941 3008 
C 941 2963 954 2950 1024 2880 
L 2304 1596 
L 1024 313 
C 954 243 941 230 941 185 
C 941 115 1005 57 1069 57 
C 1120 57 1133 70 1210 147 
L 2483 1418 
L 3808 95 
C 3821 89 3866 57 3904 57 
C 3981 57 4032 115 4032 185 
C 4032 198 4032 223 4013 255 
C 4006 268 2989 1271 2669 1596 
L 3840 2765 
C 3872 2803 3968 2886 4000 2925 
C 4006 2937 4032 2963 4032 3008 
C 4032 3078 3981 3136 3904 3136 
C 3853 3136 3827 3110 3757 3040 
L 2490 1775 
z
" transform="scale(0.015625)"/>
      </defs>
      <use xlink:href="#CMSY10-2" transform="scale(0.996264)"/>
      <use xlink:href="#CMR17-31" transform="translate(77.487468 0)scale(0.996264)"/>
      <use xlink:href="#CMR17-30" transform="translate(123.177945 0)scale(0.996264)"/>
      <use xlink:href="#CMR17-36" transform="translate(168.868422 36.153639)scale(0.697382)"/>
     </g>
    </g>
   </g>
   <g id="matplotlib.axis_2">
    <g id="ytick_1">
     <g id="line2d_16">
      <defs>
       <path id="mf3b9f767bd" d="M 0 0 
L 4 0 
" style="stroke: #000000; stroke-width: 0.5"/>
      </defs>
      <g>
       <use xlink:href="#mf3b9f767bd" x="36.499371" y="115.087941" style="stroke: #000000; stroke-width: 0.5"/>
      </g>
     </g>
     <g id="line2d_17">
      <defs>
       <path id="mae8f0c06e9" d="M 0 0 
L -4 0 
" style="stroke: #000000; stroke-width: 0.5"/>
      </defs>
      <g>
       <use xlink:href="#mae8f0c06e9" x="226.436991" y="115.087941" style="stroke: #000000; stroke-width: 0.5"/>
      </g>
     </g>
     <g id="text_9">
      <!-- $\mathdefault{0}$ -->
      <g transform="translate(28.265189 117.855342)scale(0.08 -0.08)">
       <use xlink:href="#CMR17-30" transform="scale(0.996264)"/>
      </g>
     </g>
    </g>
    <g id="ytick_2">
     <g id="line2d_18">
      <g>
       <use xlink:href="#mf3b9f767bd" x="36.499371" y="86.229704" style="stroke: #000000; stroke-width: 0.5"/>
      </g>
     </g>
     <g id="line2d_19">
      <g>
       <use xlink:href="#mae8f0c06e9" x="226.436991" y="86.229704" style="stroke: #000000; stroke-width: 0.5"/>
      </g>
     </g>
     <g id="text_10">
      <!-- $\mathdefault{2000}$ -->
      <g transform="translate(15.56264 88.997105)scale(0.08 -0.08)">
       <use xlink:href="#CMR17-32" transform="scale(0.996264)"/>
       <use xlink:href="#CMR17-30" transform="translate(45.690477 0)scale(0.996264)"/>
       <use xlink:href="#CMR17-30" transform="translate(91.380954 0)scale(0.996264)"/>
       <use xlink:href="#CMR17-30" transform="translate(137.071431 0)scale(0.996264)"/>
      </g>
     </g>
    </g>
    <g id="ytick_3">
     <g id="line2d_20">
      <g>
       <use xlink:href="#mf3b9f767bd" x="36.499371" y="57.371467" style="stroke: #000000; stroke-width: 0.5"/>
      </g>
     </g>
     <g id="line2d_21">
      <g>
       <use xlink:href="#mae8f0c06e9" x="226.436991" y="57.371467" style="stroke: #000000; stroke-width: 0.5"/>
      </g>
     </g>
     <g id="text_11">
      <!-- $\mathdefault{4000}$ -->
      <g transform="translate(15.56264 60.138868)scale(0.08 -0.08)">
       <use xlink:href="#CMR17-34" transform="scale(0.996264)"/>
       <use xlink:href="#CMR17-30" transform="translate(45.690477 0)scale(0.996264)"/>
       <use xlink:href="#CMR17-30" transform="translate(91.380954 0)scale(0.996264)"/>
       <use xlink:href="#CMR17-30" transform="translate(137.071431 0)scale(0.996264)"/>
      </g>
     </g>
    </g>
    <g id="ytick_4">
     <g id="line2d_22">
      <g>
       <use xlink:href="#mf3b9f767bd" x="36.499371" y="28.51323" style="stroke: #000000; stroke-width: 0.5"/>
      </g>
     </g>
     <g id="line2d_23">
      <g>
       <use xlink:href="#mae8f0c06e9" x="226.436991" y="28.51323" style="stroke: #000000; stroke-width: 0.5"/>
      </g>
     </g>
     <g id="text_12">
      <!-- $\mathdefault{6000}$ -->
      <g transform="translate(15.56264 31.280631)scale(0.08 -0.08)">
       <use xlink:href="#CMR17-36" transform="scale(0.996264)"/>
       <use xlink:href="#CMR17-30" transform="translate(45.690477 0)scale(0.996264)"/>
       <use xlink:href="#CMR17-30" transform="translate(91.380954 0)scale(0.996264)"/>
       <use xlink:href="#CMR17-30" transform="translate(137.071431 0)scale(0.996264)"/>
      </g>
     </g>
    </g>
    <g id="text_13">
     <!-- $S(\ell)$ -->
     <g transform="translate(11.07198 71.206953)rotate(-90)scale(0.1 -0.1)">
      <defs>
       <path id="CMMI12-53" d="M 4064 4422 
C 4064 4480 4019 4480 4006 4480 
C 3981 4480 3974 4473 3898 4377 
C 3859 4332 3597 4002 3590 3996 
C 3379 4409 2957 4480 2688 4480 
C 1875 4480 1139 3742 1139 3024 
C 1139 2547 1427 2268 1741 2160 
C 1811 2134 2189 2033 2381 1988 
C 2707 1899 2790 1874 2925 1734 
C 2950 1702 3078 1556 3078 1258 
C 3078 667 2528 57 1888 57 
C 1363 57 781 279 781 991 
C 781 1112 806 1264 826 1328 
C 826 1347 832 1378 832 1391 
C 832 1417 819 1448 768 1448 
C 710 1448 704 1436 678 1328 
L 352 25 
C 352 19 326 -64 326 -71 
C 326 -128 378 -128 390 -128 
C 416 -128 422 -122 499 -26 
L 794 356 
C 947 127 1280 -128 1875 -128 
C 2701 -128 3456 667 3456 1461 
C 3456 1728 3392 1963 3149 2198 
C 3014 2331 2899 2363 2310 2516 
C 1882 2630 1824 2649 1709 2751 
C 1600 2859 1517 3011 1517 3227 
C 1517 3761 2061 4307 2669 4307 
C 3296 4307 3590 3926 3590 3322 
C 3590 3157 3558 2986 3558 2960 
C 3558 2903 3610 2903 3629 2903 
C 3686 2903 3693 2922 3718 3024 
L 4064 4422 
z
" transform="scale(0.015625)"/>
       <path id="CMR17-28" d="M 1958 -1562 
C 1958 -1556 1958 -1543 1939 -1524 
C 1645 -1223 858 -403 858 1596 
C 858 3595 1632 4408 1946 4729 
C 1946 4735 1958 4748 1958 4767 
C 1958 4787 1939 4800 1914 4800 
C 1843 4800 1299 4325 986 3620 
C 666 2909 576 2218 576 1603 
C 576 1141 621 360 1005 -467 
C 1312 -1133 1837 -1600 1914 -1600 
C 1946 -1600 1958 -1588 1958 -1562 
z
" transform="scale(0.015625)"/>
       <path id="CMR17-29" d="M 1683 1596 
C 1683 2057 1638 2839 1254 3665 
C 947 4332 422 4800 346 4800 
C 326 4800 301 4793 301 4761 
C 301 4748 307 4742 314 4729 
C 621 4408 1402 3595 1402 1603 
C 1402 -396 627 -1210 314 -1530 
C 307 -1543 301 -1549 301 -1562 
C 301 -1594 326 -1600 346 -1600 
C 416 -1600 960 -1127 1274 -422 
C 1594 289 1683 981 1683 1596 
z
" transform="scale(0.015625)"/>
      </defs>
      <use xlink:href="#CMMI12-53" transform="scale(0.996264)"/>
      <use xlink:href="#CMR17-28" transform="translate(65.794439 0)scale(0.996264)"/>
      <use xlink:href="#CMMI12-60" transform="translate(101.075207 0)scale(0.996264)"/>
      <use xlink:href="#CMR17-29" transform="translate(142.009426 0)scale(0.996264)"/>
     </g>
    </g>
   </g>
   <g id="patch_3">
    <path d="M 36.499371 120.230791 
L 36.499371 3.6 
" style="fill: none; stroke: #000000; stroke-linejoin: miter; stroke-linecap: square"/>
   </g>
   <g id="patch_4">
    <path d="M 226.436991 120.230791 
L 226.436991 3.6 
" style="fill: none; stroke: #000000; stroke-linejoin: miter; stroke-linecap: square"/>
   </g>
   <g id="patch_5">
    <path d="M 36.499371 120.230791 
L 226.436991 120.230791 
" style="fill: none; stroke: #000000; stroke-linejoin: miter; stroke-linecap: square"/>
   </g>
   <g id="patch_6">
    <path d="M 36.499371 3.6 
L 226.436991 3.6 
" style="fill: none; stroke: #000000; stroke-linejoin: miter; stroke-linecap: square"/>
   </g>
   <g id="legend_1">
    <g id="line2d_24">
     <g>
      <use xlink:href="#m30235ff009" x="63.593133" y="15.774932" style="fill: #4173b3; stroke: #ff8c00; stroke-width: 0.5"/>
     </g>
    </g>
    <g id="text_14">
     <!-- $S_1$  -->
     <g transform="translate(72.593133 20.004932)scale(0.09 -0.09)">
      <use xlink:href="#CMMI12-53" transform="scale(0.996264)"/>
      <use xlink:href="#CMR17-31" transform="translate(59.994488 -14.943915)scale(0.697382)"/>
     </g>
    </g>
    <g id="line2d_25">
     <g>
      <use xlink:href="#mbf8d89a5ad" x="63.593133" y="29.004932" style="fill: #ffffff; stroke: #000000; stroke-width: 0.5; stroke-linejoin: bevel"/>
     </g>
    </g>
    <g id="text_15">
     <!-- $\bar{S}_2$  -->
     <g transform="translate(72.593133 33.234932)scale(0.09 -0.09)">
      <defs>
       <path id="CMR17-16" d="M 2554 3520 
L 2554 3667 
L 378 3667 
L 378 3520 
L 2554 3520 
z
" transform="scale(0.015625)"/>
      </defs>
      <use xlink:href="#CMR17-16" transform="translate(18.181134 25.189733)scale(0.996264)"/>
      <use xlink:href="#CMMI12-53" transform="scale(0.996264)"/>
      <use xlink:href="#CMR17-32" transform="translate(59.994488 -14.943915)scale(0.697382)"/>
     </g>
    </g>
    <g id="line2d_26">
     <g>
      <use xlink:href="#md0cfe30c26" x="63.593133" y="42.234932" style="fill: #66cdaa; stroke: #e85c47; stroke-width: 0.5"/>
     </g>
    </g>
    <g id="text_16">
     <!-- $S_2$  -->
     <g transform="translate(72.593133 46.464932)scale(0.09 -0.09)">
      <use xlink:href="#CMMI12-53" transform="scale(0.996264)"/>
      <use xlink:href="#CMR17-32" transform="translate(59.994488 -14.943915)scale(0.697382)"/>
     </g>
    </g>
   </g>
  </g>
 </g>
 <defs>
  <clipPath id="p589b4c1c04">
   <rect x="36.499371" y="3.6" width="189.93762" height="116.630791"/>
  </clipPath>
 </defs>
</svg>
