<?xml version="1.0" encoding="utf-8" standalone="no"?>
<!DOCTYPE svg PUBLIC "-//W3C//DTD SVG 1.1//EN"
  "http://www.w3.org/Graphics/SVG/1.1/DTD/svg11.dtd">
<svg xmlns:xlink="http://www.w3.org/1999/xlink" width="211.95831pt" height="145.771015pt" viewBox="0 0 211.95831 145.771015" xmlns="http://www.w3.org/2000/svg" version="1.1">
 <metadata>
  <rdf:RDF xmlns:dc="http://purl.org/dc/elements/1.1/" xmlns:cc="http://creativecommons.org/ns#" xmlns:rdf="http://www.w3.org/1999/02/22-rdf-syntax-ns#">
   <cc:Work>
    <dc:type rdf:resource="http://purl.org/dc/dcmitype/StillImage"/>
    <dc:date>2025-12-20T13:47:39.349583</dc:date>
    <dc:format>image/svg+xml</dc:format>
    <dc:creator>
     <cc:Agent>
      <dc:title>Matplotlib v3.5.2, https://matplotlib.org/</dc:title>
     </cc:Agent>
    </dc:creator>
   </cc:Work>
  </rdf:RDF>
 </metadata>
 <defs>
  <style type="text/css">*{stroke-linejoin: round; stroke-linecap: butt}</style>
 </defs>
 <g id="figure_1">
  <g id="patch_1">
   <path d="M 0 145.771015 
L 211.95831 145.771015 
L 211.95831 0 
L 0 0 
z
" style="fill: #ffffff"/>
  </g>
  <g id="axes_1">
   <g id="patch_2">
    <path d="M 18.42069 120.230791 
L 208.35831 120.230791 
L 208.35831 3.6 
L 18.42069 3.6 
z
" style="fill: #ffffff"/>
   </g>
   <g id="matplotlib.axis_1">
    <g id="xtick_1">
     <g id="line2d_1">
      <defs>
       <path id="mee42c51f63" d="M 0 0 
L 0 -4 
" style="stroke: #000000; stroke-width: 0.5"/>
      </defs>
      <g>
       <use xlink:href="#mee42c51f63" x="27.054218" y="120.230791" style="stroke: #000000; stroke-width: 0.5"/>
      </g>
     </g>
     <g id="line2d_2">
      <defs>
       <path id="mfeb24911ca" d="M 0 0 
L 0 4 
" style="stroke: #000000; stroke-width: 0.5"/>
      </defs>
      <g>
       <use xlink:href="#mfeb24911ca" x="27.054218" y="3.6" style="stroke: #000000; stroke-width: 0.5"/>
      </g>
     </g>
     <g id="text_1">
      <!-- $\mathdefault{0}$ -->
      <g transform="translate(24.937126 129.765593)scale(0.08 -0.08)">
       <defs>
        <path id="CMR17-30" d="M 2688 2038 
C 2688 2430 2682 3099 2413 3613 
C 2176 4063 1798 4224 1466 4224 
C 1158 4224 768 4082 525 3620 
C 269 3137 243 2539 243 2038 
C 243 1671 250 1112 448 623 
C 723 -39 1216 -128 1466 -128 
C 1760 -128 2208 -7 2470 604 
C 2662 1048 2688 1568 2688 2038 
z
M 1466 -26 
C 1056 -26 813 328 723 816 
C 653 1196 653 1749 653 2109 
C 653 2604 653 3015 736 3407 
C 858 3954 1216 4121 1466 4121 
C 1728 4121 2067 3947 2189 3420 
C 2272 3054 2278 2623 2278 2109 
C 2278 1691 2278 1176 2202 797 
C 2067 96 1690 -26 1466 -26 
z
" transform="scale(0.015625)"/>
       </defs>
       <use xlink:href="#CMR17-30" transform="scale(0.996264)"/>
      </g>
     </g>
    </g>
    <g id="xtick_2">
     <g id="line2d_3">
      <g>
       <use xlink:href="#mee42c51f63" x="70.221859" y="120.230791" style="stroke: #000000; stroke-width: 0.5"/>
      </g>
     </g>
     <g id="line2d_4">
      <g>
       <use xlink:href="#mfeb24911ca" x="70.221859" y="3.6" style="stroke: #000000; stroke-width: 0.5"/>
      </g>
     </g>
     <g id="text_2">
      <!-- $\mathdefault{100}$ -->
      <g transform="translate(63.870584 129.765593)scale(0.08 -0.08)">
       <defs>
        <path id="CMR17-31" d="M 1702 4083 
C 1702 4217 1696 4224 1606 4224 
C 1357 3927 979 3833 621 3820 
C 602 3820 570 3820 563 3808 
C 557 3795 557 3782 557 3648 
C 755 3648 1088 3686 1344 3839 
L 1344 467 
C 1344 243 1331 166 781 166 
L 589 166 
L 589 0 
C 896 6 1216 12 1523 12 
C 1830 12 2150 6 2458 0 
L 2458 166 
L 2266 166 
C 1715 166 1702 236 1702 467 
L 1702 4083 
z
" transform="scale(0.015625)"/>
       </defs>
       <use xlink:href="#CMR17-31" transform="scale(0.996264)"/>
       <use xlink:href="#CMR17-30" transform="translate(45.690477 0)scale(0.996264)"/>
       <use xlink:href="#CMR17-30" transform="translate(91.380954 0)scale(0.996264)"/>
      </g>
     </g>
    </g>
    <g id="xtick_3">
     <g id="line2d_5">
      <g>
       <use xlink:href="#mee42c51f63" x="113.3895" y="120.230791" style="stroke: #000000; stroke-width: 0.5"/>
      </g>
     </g>
     <g id="line2d_6">
      <g>
       <use xlink:href="#mfeb24911ca" x="113.3895" y="3.6" style="stroke: #000000; stroke-width: 0.5"/>
      </g>
     </g>
     <g id="text_3">
      <!-- $\mathdefault{200}$ -->
      <g transform="translate(107.038225 129.765593)scale(0.08 -0.08)">
       <defs>
        <path id="CMR17-32" d="M 2669 990 
L 2554 990 
C 2490 537 2438 460 2413 422 
C 2381 371 1920 371 1830 371 
L 602 371 
C 832 620 1280 1073 1824 1596 
C 2214 1966 2669 2400 2669 3033 
C 2669 3788 2067 4224 1395 4224 
C 691 4224 262 3603 262 3027 
C 262 2777 448 2745 525 2745 
C 589 2745 781 2783 781 3007 
C 781 3206 614 3264 525 3264 
C 486 3264 448 3257 422 3244 
C 544 3788 915 4057 1306 4057 
C 1862 4057 2227 3616 2227 3033 
C 2227 2477 1901 1998 1536 1583 
L 262 147 
L 262 0 
L 2515 0 
L 2669 990 
z
" transform="scale(0.015625)"/>
       </defs>
       <use xlink:href="#CMR17-32" transform="scale(0.996264)"/>
       <use xlink:href="#CMR17-30" transform="translate(45.690477 0)scale(0.996264)"/>
       <use xlink:href="#CMR17-30" transform="translate(91.380954 0)scale(0.996264)"/>
      </g>
     </g>
    </g>
    <g id="xtick_4">
     <g id="line2d_7">
      <g>
       <use xlink:href="#mee42c51f63" x="156.55714" y="120.230791" style="stroke: #000000; stroke-width: 0.5"/>
      </g>
     </g>
     <g id="line2d_8">
      <g>
       <use xlink:href="#mfeb24911ca" x="156.55714" y="3.6" style="stroke: #000000; stroke-width: 0.5"/>
      </g>
     </g>
     <g id="text_4">
      <!-- $\mathdefault{300}$ -->
      <g transform="translate(150.205866 129.765593)scale(0.08 -0.08)">
       <defs>
        <path id="CMR17-33" d="M 1414 2176 
C 1984 2176 2234 1673 2234 1094 
C 2234 322 1824 25 1453 25 
C 1114 25 563 193 390 691 
C 422 678 454 678 486 678 
C 640 678 755 780 755 947 
C 755 1132 614 1216 486 1216 
C 378 1216 211 1164 211 927 
C 211 335 787 -128 1466 -128 
C 2176 -128 2720 432 2720 1087 
C 2720 1718 2208 2176 1600 2246 
C 2086 2347 2554 2776 2554 3353 
C 2554 3856 2048 4224 1472 4224 
C 890 4224 378 3862 378 3347 
C 378 3123 544 3084 627 3084 
C 762 3084 877 3167 877 3334 
C 877 3500 762 3584 627 3584 
C 602 3584 570 3584 544 3571 
C 730 3999 1235 4076 1459 4076 
C 1683 4076 2106 3966 2106 3347 
C 2106 3167 2080 2851 1862 2574 
C 1670 2329 1453 2316 1242 2297 
C 1210 2297 1062 2284 1037 2284 
C 992 2278 966 2272 966 2227 
C 966 2182 973 2176 1101 2176 
L 1414 2176 
z
" transform="scale(0.015625)"/>
       </defs>
       <use xlink:href="#CMR17-33" transform="scale(0.996264)"/>
       <use xlink:href="#CMR17-30" transform="translate(45.690477 0)scale(0.996264)"/>
       <use xlink:href="#CMR17-30" transform="translate(91.380954 0)scale(0.996264)"/>
      </g>
     </g>
    </g>
    <g id="xtick_5">
     <g id="line2d_9">
      <g>
       <use xlink:href="#mee42c51f63" x="199.724781" y="120.230791" style="stroke: #000000; stroke-width: 0.5"/>
      </g>
     </g>
     <g id="line2d_10">
      <g>
       <use xlink:href="#mfeb24911ca" x="199.724781" y="3.6" style="stroke: #000000; stroke-width: 0.5"/>
      </g>
     </g>
     <g id="text_5">
      <!-- $\mathdefault{400}$ -->
      <g transform="translate(193.373507 129.765593)scale(0.08 -0.08)">
       <defs>
        <path id="CMR17-34" d="M 2150 4147 
C 2150 4281 2144 4288 2029 4288 
L 128 1254 
L 128 1088 
L 1779 1088 
L 1779 460 
C 1779 230 1766 166 1318 166 
L 1197 166 
L 1197 0 
C 1402 12 1747 12 1965 12 
C 2182 12 2528 12 2733 0 
L 2733 166 
L 2611 166 
C 2163 166 2150 230 2150 460 
L 2150 1088 
L 2803 1088 
L 2803 1254 
L 2150 1254 
L 2150 4147 
z
M 1798 3723 
L 1798 1254 
L 256 1254 
L 1798 3723 
z
" transform="scale(0.015625)"/>
       </defs>
       <use xlink:href="#CMR17-34" transform="scale(0.996264)"/>
       <use xlink:href="#CMR17-30" transform="translate(45.690477 0)scale(0.996264)"/>
       <use xlink:href="#CMR17-30" transform="translate(91.380954 0)scale(0.996264)"/>
      </g>
     </g>
    </g>
    <g id="text_6">
     <!-- $n$ -->
     <g transform="translate(110.399537 140.233837)scale(0.1 -0.1)">
      <defs>
       <path id="CMMI12-6e" d="M 1318 1870 
C 1331 1909 1491 2228 1728 2432 
C 1894 2585 2112 2687 2362 2687 
C 2618 2687 2707 2496 2707 2241 
C 2707 1877 2445 1149 2317 804 
C 2259 651 2227 568 2227 453 
C 2227 166 2426 -64 2733 -64 
C 3328 -64 3552 874 3552 913 
C 3552 945 3526 970 3488 970 
C 3430 970 3424 951 3392 842 
C 3245 319 3002 64 2752 64 
C 2688 64 2586 70 2586 274 
C 2586 434 2656 625 2694 715 
C 2822 1066 3091 1781 3091 2145 
C 3091 2528 2867 2816 2381 2816 
C 1811 2816 1510 2413 1395 2253 
C 1376 2617 1114 2816 832 2816 
C 627 2816 486 2694 378 2477 
C 262 2247 173 1864 173 1838 
C 173 1813 198 1781 243 1781 
C 294 1781 301 1787 339 1934 
C 442 2324 557 2687 813 2687 
C 960 2687 1011 2585 1011 2394 
C 1011 2253 947 2004 902 1807 
L 723 1117 
C 698 996 627 708 595 593 
C 550 427 480 127 480 95 
C 480 6 550 -64 646 -64 
C 723 -64 813 -26 864 70 
C 877 102 934 325 966 453 
L 1107 1028 
L 1318 1870 
z
" transform="scale(0.015625)"/>
      </defs>
      <use xlink:href="#CMMI12-6e" transform="scale(0.996264)"/>
     </g>
    </g>
   </g>
   <g id="matplotlib.axis_2">
    <g id="ytick_1">
     <g id="line2d_11">
      <defs>
       <path id="mfffc0a508c" d="M 0 0 
L 4 0 
" style="stroke: #000000; stroke-width: 0.5"/>
      </defs>
      <g>
       <use xlink:href="#mfffc0a508c" x="18.42069" y="114.929392" style="stroke: #000000; stroke-width: 0.5"/>
      </g>
     </g>
     <g id="line2d_12">
      <defs>
       <path id="mb979fad954" d="M 0 0 
L -4 0 
" style="stroke: #000000; stroke-width: 0.5"/>
      </defs>
      <g>
       <use xlink:href="#mb979fad954" x="208.35831" y="114.929392" style="stroke: #000000; stroke-width: 0.5"/>
      </g>
     </g>
     <g id="text_7">
      <!-- $\mathdefault{0.0}$ -->
      <g transform="translate(3.6 117.696792)scale(0.08 -0.08)">
       <defs>
        <path id="CMMI12-3a" d="M 1178 307 
C 1178 492 1024 620 870 620 
C 685 620 557 467 557 313 
C 557 128 710 0 864 0 
C 1050 0 1178 153 1178 307 
z
" transform="scale(0.015625)"/>
       </defs>
       <use xlink:href="#CMR17-30" transform="scale(0.996264)"/>
       <use xlink:href="#CMMI12-3a" transform="translate(45.690477 0)scale(0.996264)"/>
       <use xlink:href="#CMR17-30" transform="translate(72.787654 0)scale(0.996264)"/>
      </g>
     </g>
    </g>
    <g id="ytick_2">
     <g id="line2d_13">
      <g>
       <use xlink:href="#mfffc0a508c" x="18.42069" y="93.723793" style="stroke: #000000; stroke-width: 0.5"/>
      </g>
     </g>
     <g id="line2d_14">
      <g>
       <use xlink:href="#mb979fad954" x="208.35831" y="93.723793" style="stroke: #000000; stroke-width: 0.5"/>
      </g>
     </g>
     <g id="text_8">
      <!-- $\mathdefault{0.2}$ -->
      <g transform="translate(3.6 96.491194)scale(0.08 -0.08)">
       <use xlink:href="#CMR17-30" transform="scale(0.996264)"/>
       <use xlink:href="#CMMI12-3a" transform="translate(45.690477 0)scale(0.996264)"/>
       <use xlink:href="#CMR17-32" transform="translate(72.787654 0)scale(0.996264)"/>
      </g>
     </g>
    </g>
    <g id="ytick_3">
     <g id="line2d_15">
      <g>
       <use xlink:href="#mfffc0a508c" x="18.42069" y="72.518195" style="stroke: #000000; stroke-width: 0.5"/>
      </g>
     </g>
     <g id="line2d_16">
      <g>
       <use xlink:href="#mb979fad954" x="208.35831" y="72.518195" style="stroke: #000000; stroke-width: 0.5"/>
      </g>
     </g>
     <g id="text_9">
      <!-- $\mathdefault{0.4}$ -->
      <g transform="translate(3.6 75.285596)scale(0.08 -0.08)">
       <use xlink:href="#CMR17-30" transform="scale(0.996264)"/>
       <use xlink:href="#CMMI12-3a" transform="translate(45.690477 0)scale(0.996264)"/>
       <use xlink:href="#CMR17-34" transform="translate(72.787654 0)scale(0.996264)"/>
      </g>
     </g>
    </g>
    <g id="ytick_4">
     <g id="line2d_17">
      <g>
       <use xlink:href="#mfffc0a508c" x="18.42069" y="51.312596" style="stroke: #000000; stroke-width: 0.5"/>
      </g>
     </g>
     <g id="line2d_18">
      <g>
       <use xlink:href="#mb979fad954" x="208.35831" y="51.312596" style="stroke: #000000; stroke-width: 0.5"/>
      </g>
     </g>
     <g id="text_10">
      <!-- $\mathdefault{0.6}$ -->
      <g transform="translate(3.6 54.079997)scale(0.08 -0.08)">
       <defs>
        <path id="CMR17-36" d="M 678 2198 
C 678 3712 1395 4076 1811 4076 
C 1946 4076 2272 4049 2400 3782 
C 2298 3782 2106 3782 2106 3558 
C 2106 3385 2246 3328 2336 3328 
C 2394 3328 2566 3353 2566 3571 
C 2566 3987 2246 4224 1805 4224 
C 1043 4224 243 3411 243 2011 
C 243 257 966 -128 1478 -128 
C 2099 -128 2688 431 2688 1295 
C 2688 2101 2170 2688 1517 2688 
C 1126 2688 838 2430 678 1979 
L 678 2198 
z
M 1478 25 
C 691 25 691 1212 691 1450 
C 691 1914 909 2585 1504 2585 
C 1613 2585 1926 2585 2138 2140 
C 2253 1889 2253 1624 2253 1302 
C 2253 954 2253 696 2118 438 
C 1978 173 1773 25 1478 25 
z
" transform="scale(0.015625)"/>
       </defs>
       <use xlink:href="#CMR17-30" transform="scale(0.996264)"/>
       <use xlink:href="#CMMI12-3a" transform="translate(45.690477 0)scale(0.996264)"/>
       <use xlink:href="#CMR17-36" transform="translate(72.787654 0)scale(0.996264)"/>
      </g>
     </g>
    </g>
    <g id="ytick_5">
     <g id="line2d_19">
      <g>
       <use xlink:href="#mfffc0a508c" x="18.42069" y="30.106998" style="stroke: #000000; stroke-width: 0.5"/>
      </g>
     </g>
     <g id="line2d_20">
      <g>
       <use xlink:href="#mb979fad954" x="208.35831" y="30.106998" style="stroke: #000000; stroke-width: 0.5"/>
      </g>
     </g>
     <g id="text_11">
      <!-- $\mathdefault{0.8}$ -->
      <g transform="translate(3.6 32.874399)scale(0.08 -0.08)">
       <defs>
        <path id="CMR17-38" d="M 1741 2289 
C 2144 2494 2554 2803 2554 3298 
C 2554 3884 1990 4224 1472 4224 
C 890 4224 378 3800 378 3215 
C 378 3054 416 2777 666 2533 
C 730 2469 998 2276 1171 2154 
C 883 2006 211 1652 211 945 
C 211 282 838 -128 1459 -128 
C 2144 -128 2720 366 2720 1022 
C 2720 1607 2330 1877 2074 2051 
L 1741 2289 
z
M 902 2855 
C 851 2887 595 3086 595 3388 
C 595 3781 998 4076 1459 4076 
C 1965 4076 2336 3716 2336 3298 
C 2336 2700 1670 2359 1638 2359 
C 1632 2359 1626 2359 1574 2398 
L 902 2855 
z
M 2080 1536 
C 2176 1466 2483 1253 2483 861 
C 2483 385 2010 25 1472 25 
C 890 25 448 443 448 951 
C 448 1459 838 1884 1280 2083 
L 2080 1536 
z
" transform="scale(0.015625)"/>
       </defs>
       <use xlink:href="#CMR17-30" transform="scale(0.996264)"/>
       <use xlink:href="#CMMI12-3a" transform="translate(45.690477 0)scale(0.996264)"/>
       <use xlink:href="#CMR17-38" transform="translate(72.787654 0)scale(0.996264)"/>
      </g>
     </g>
    </g>
    <g id="ytick_6">
     <g id="line2d_21">
      <g>
       <use xlink:href="#mfffc0a508c" x="18.42069" y="8.9014" style="stroke: #000000; stroke-width: 0.5"/>
      </g>
     </g>
     <g id="line2d_22">
      <g>
       <use xlink:href="#mb979fad954" x="208.35831" y="8.9014" style="stroke: #000000; stroke-width: 0.5"/>
      </g>
     </g>
     <g id="text_12">
      <!-- $\mathdefault{1.0}$ -->
      <g transform="translate(3.6 11.6688)scale(0.08 -0.08)">
       <use xlink:href="#CMR17-31" transform="scale(0.996264)"/>
       <use xlink:href="#CMMI12-3a" transform="translate(45.690477 0)scale(0.996264)"/>
       <use xlink:href="#CMR17-30" transform="translate(72.787654 0)scale(0.996264)"/>
      </g>
     </g>
    </g>
   </g>
   <g id="line2d_23">
    <defs>
     <path id="md6baff7404" d="M 0 2 
C 0.530406 2 1.03916 1.789267 1.414214 1.414214 
C 1.789267 1.03916 2 0.530406 2 0 
C 2 -0.530406 1.789267 -1.03916 1.414214 -1.414214 
C 1.03916 -1.789267 0.530406 -2 0 -2 
C -0.530406 -2 -1.03916 -1.789267 -1.414214 -1.414214 
C -1.789267 -1.03916 -2 -0.530406 -2 0 
C -2 0.530406 -1.789267 1.03916 -1.414214 1.414214 
C -1.03916 1.789267 -0.530406 2 0 2 
z
" style="stroke: #909090; stroke-width: 0.5"/>
    </defs>
    <g clip-path="url(#pf1cfad7a88)">
     <use xlink:href="#md6baff7404" x="27.054218" y="8.9014" style="fill: #e85c47; stroke: #909090; stroke-width: 0.5"/>
     <use xlink:href="#md6baff7404" x="30.507629" y="43.856703" style="fill: #e85c47; stroke: #909090; stroke-width: 0.5"/>
     <use xlink:href="#md6baff7404" x="33.96104" y="67.287944" style="fill: #e85c47; stroke: #909090; stroke-width: 0.5"/>
     <use xlink:href="#md6baff7404" x="37.414452" y="82.994374" style="fill: #e85c47; stroke: #909090; stroke-width: 0.5"/>
     <use xlink:href="#md6baff7404" x="40.867863" y="93.522709" style="fill: #e85c47; stroke: #909090; stroke-width: 0.5"/>
     <use xlink:href="#md6baff7404" x="44.321274" y="100.580063" style="fill: #e85c47; stroke: #909090; stroke-width: 0.5"/>
     <use xlink:href="#md6baff7404" x="47.774685" y="105.310749" style="fill: #e85c47; stroke: #909090; stroke-width: 0.5"/>
     <use xlink:href="#md6baff7404" x="51.228097" y="108.481823" style="fill: #e85c47; stroke: #909090; stroke-width: 0.5"/>
     <use xlink:href="#md6baff7404" x="54.681508" y="110.607457" style="fill: #e85c47; stroke: #909090; stroke-width: 0.5"/>
     <use xlink:href="#md6baff7404" x="58.134919" y="112.032312" style="fill: #e85c47; stroke: #909090; stroke-width: 0.5"/>
     <use xlink:href="#md6baff7404" x="61.58833" y="112.987421" style="fill: #e85c47; stroke: #909090; stroke-width: 0.5"/>
     <use xlink:href="#md6baff7404" x="65.041742" y="113.62765" style="fill: #e85c47; stroke: #909090; stroke-width: 0.5"/>
     <use xlink:href="#md6baff7404" x="68.495153" y="114.056808" style="fill: #e85c47; stroke: #909090; stroke-width: 0.5"/>
     <use xlink:href="#md6baff7404" x="71.948564" y="114.344481" style="fill: #e85c47; stroke: #909090; stroke-width: 0.5"/>
     <use xlink:href="#md6baff7404" x="75.401976" y="114.537315" style="fill: #e85c47; stroke: #909090; stroke-width: 0.5"/>
     <use xlink:href="#md6baff7404" x="78.855387" y="114.666574" style="fill: #e85c47; stroke: #909090; stroke-width: 0.5"/>
     <use xlink:href="#md6baff7404" x="82.308798" y="114.75322" style="fill: #e85c47; stroke: #909090; stroke-width: 0.5"/>
     <use xlink:href="#md6baff7404" x="85.762209" y="114.8113" style="fill: #e85c47; stroke: #909090; stroke-width: 0.5"/>
     <use xlink:href="#md6baff7404" x="89.215621" y="114.850233" style="fill: #e85c47; stroke: #909090; stroke-width: 0.5"/>
     <use xlink:href="#md6baff7404" x="92.669032" y="114.87633" style="fill: #e85c47; stroke: #909090; stroke-width: 0.5"/>
     <use xlink:href="#md6baff7404" x="96.122443" y="114.893823" style="fill: #e85c47; stroke: #909090; stroke-width: 0.5"/>
     <use xlink:href="#md6baff7404" x="99.575854" y="114.905549" style="fill: #e85c47; stroke: #909090; stroke-width: 0.5"/>
     <use xlink:href="#md6baff7404" x="103.029266" y="114.91341" style="fill: #e85c47; stroke: #909090; stroke-width: 0.5"/>
     <use xlink:href="#md6baff7404" x="106.482677" y="114.918679" style="fill: #e85c47; stroke: #909090; stroke-width: 0.5"/>
     <use xlink:href="#md6baff7404" x="109.936088" y="114.92221" style="fill: #e85c47; stroke: #909090; stroke-width: 0.5"/>
     <use xlink:href="#md6baff7404" x="113.3895" y="114.924578" style="fill: #e85c47; stroke: #909090; stroke-width: 0.5"/>
     <use xlink:href="#md6baff7404" x="116.842911" y="114.92221" style="fill: #e85c47; stroke: #909090; stroke-width: 0.5"/>
     <use xlink:href="#md6baff7404" x="120.296322" y="114.918679" style="fill: #e85c47; stroke: #909090; stroke-width: 0.5"/>
     <use xlink:href="#md6baff7404" x="123.749733" y="114.91341" style="fill: #e85c47; stroke: #909090; stroke-width: 0.5"/>
     <use xlink:href="#md6baff7404" x="127.203145" y="114.905549" style="fill: #e85c47; stroke: #909090; stroke-width: 0.5"/>
     <use xlink:href="#md6baff7404" x="130.656556" y="114.893823" style="fill: #e85c47; stroke: #909090; stroke-width: 0.5"/>
     <use xlink:href="#md6baff7404" x="134.109967" y="114.87633" style="fill: #e85c47; stroke: #909090; stroke-width: 0.5"/>
     <use xlink:href="#md6baff7404" x="137.563378" y="114.850233" style="fill: #e85c47; stroke: #909090; stroke-width: 0.5"/>
     <use xlink:href="#md6baff7404" x="141.01679" y="114.8113" style="fill: #e85c47; stroke: #909090; stroke-width: 0.5"/>
     <use xlink:href="#md6baff7404" x="144.470201" y="114.75322" style="fill: #e85c47; stroke: #909090; stroke-width: 0.5"/>
     <use xlink:href="#md6baff7404" x="147.923612" y="114.666574" style="fill: #e85c47; stroke: #909090; stroke-width: 0.5"/>
     <use xlink:href="#md6baff7404" x="151.377024" y="114.537315" style="fill: #e85c47; stroke: #909090; stroke-width: 0.5"/>
     <use xlink:href="#md6baff7404" x="154.830435" y="114.344481" style="fill: #e85c47; stroke: #909090; stroke-width: 0.5"/>
     <use xlink:href="#md6baff7404" x="158.283846" y="114.056808" style="fill: #e85c47; stroke: #909090; stroke-width: 0.5"/>
     <use xlink:href="#md6baff7404" x="161.737257" y="113.62765" style="fill: #e85c47; stroke: #909090; stroke-width: 0.5"/>
     <use xlink:href="#md6baff7404" x="165.190669" y="112.987421" style="fill: #e85c47; stroke: #909090; stroke-width: 0.5"/>
     <use xlink:href="#md6baff7404" x="168.64408" y="112.032312" style="fill: #e85c47; stroke: #909090; stroke-width: 0.5"/>
     <use xlink:href="#md6baff7404" x="172.097491" y="110.607457" style="fill: #e85c47; stroke: #909090; stroke-width: 0.5"/>
     <use xlink:href="#md6baff7404" x="175.550902" y="108.481823" style="fill: #e85c47; stroke: #909090; stroke-width: 0.5"/>
     <use xlink:href="#md6baff7404" x="179.004314" y="105.310749" style="fill: #e85c47; stroke: #909090; stroke-width: 0.5"/>
     <use xlink:href="#md6baff7404" x="182.457725" y="100.580063" style="fill: #e85c47; stroke: #909090; stroke-width: 0.5"/>
     <use xlink:href="#md6baff7404" x="185.911136" y="93.522709" style="fill: #e85c47; stroke: #909090; stroke-width: 0.5"/>
     <use xlink:href="#md6baff7404" x="189.364548" y="82.994374" style="fill: #e85c47; stroke: #909090; stroke-width: 0.5"/>
     <use xlink:href="#md6baff7404" x="192.817959" y="67.287944" style="fill: #e85c47; stroke: #909090; stroke-width: 0.5"/>
     <use xlink:href="#md6baff7404" x="196.27137" y="43.856703" style="fill: #e85c47; stroke: #909090; stroke-width: 0.5"/>
     <use xlink:href="#md6baff7404" x="199.724781" y="8.9014" style="fill: #e85c47; stroke: #909090; stroke-width: 0.5"/>
    </g>
   </g>
   <g id="line2d_24">
    <defs>
     <path id="m8600eaecbc" d="M 0 2 
C 0.530406 2 1.03916 1.789267 1.414214 1.414214 
C 1.789267 1.03916 2 0.530406 2 0 
C 2 -0.530406 1.789267 -1.03916 1.414214 -1.414214 
C 1.03916 -1.789267 0.530406 -2 0 -2 
C -0.530406 -2 -1.03916 -1.789267 -1.414214 -1.414214 
C -1.789267 -1.03916 -2 -0.530406 -2 0 
C -2 0.530406 -1.789267 1.03916 -1.414214 1.414214 
C -1.03916 1.789267 -0.530406 2 0 2 
z
" style="stroke: #909090; stroke-width: 0.5"/>
    </defs>
    <g clip-path="url(#pf1cfad7a88)">
     <use xlink:href="#m8600eaecbc" x="27.054218" y="114.929392" style="fill: #4173b3; stroke: #909090; stroke-width: 0.5"/>
     <use xlink:href="#m8600eaecbc" x="30.507629" y="100.514352" style="fill: #4173b3; stroke: #909090; stroke-width: 0.5"/>
     <use xlink:href="#m8600eaecbc" x="33.96104" y="89.823617" style="fill: #4173b3; stroke: #909090; stroke-width: 0.5"/>
     <use xlink:href="#m8600eaecbc" x="37.414452" y="80.762582" style="fill: #4173b3; stroke: #909090; stroke-width: 0.5"/>
     <use xlink:href="#m8600eaecbc" x="40.867863" y="72.796647" style="fill: #4173b3; stroke: #909090; stroke-width: 0.5"/>
     <use xlink:href="#m8600eaecbc" x="44.321274" y="65.667656" style="fill: #4173b3; stroke: #909090; stroke-width: 0.5"/>
     <use xlink:href="#m8600eaecbc" x="47.774685" y="59.222782" style="fill: #4173b3; stroke: #909090; stroke-width: 0.5"/>
     <use xlink:href="#m8600eaecbc" x="51.228097" y="53.361048" style="fill: #4173b3; stroke: #909090; stroke-width: 0.5"/>
     <use xlink:href="#m8600eaecbc" x="54.681508" y="48.010935" style="fill: #4173b3; stroke: #909090; stroke-width: 0.5"/>
     <use xlink:href="#m8600eaecbc" x="58.134919" y="43.119313" style="fill: #4173b3; stroke: #909090; stroke-width: 0.5"/>
     <use xlink:href="#m8600eaecbc" x="61.58833" y="38.645318" style="fill: #4173b3; stroke: #909090; stroke-width: 0.5"/>
     <use xlink:href="#m8600eaecbc" x="65.041742" y="34.556705" style="fill: #4173b3; stroke: #909090; stroke-width: 0.5"/>
     <use xlink:href="#m8600eaecbc" x="68.495153" y="30.827519" style="fill: #4173b3; stroke: #909090; stroke-width: 0.5"/>
     <use xlink:href="#m8600eaecbc" x="71.948564" y="27.43656" style="fill: #4173b3; stroke: #909090; stroke-width: 0.5"/>
     <use xlink:href="#m8600eaecbc" x="75.401976" y="24.366318" style="fill: #4173b3; stroke: #909090; stroke-width: 0.5"/>
     <use xlink:href="#m8600eaecbc" x="78.855387" y="21.602212" style="fill: #4173b3; stroke: #909090; stroke-width: 0.5"/>
     <use xlink:href="#m8600eaecbc" x="82.308798" y="19.132044" style="fill: #4173b3; stroke: #909090; stroke-width: 0.5"/>
     <use xlink:href="#m8600eaecbc" x="85.762209" y="16.945586" style="fill: #4173b3; stroke: #909090; stroke-width: 0.5"/>
     <use xlink:href="#m8600eaecbc" x="89.215621" y="15.034275" style="fill: #4173b3; stroke: #909090; stroke-width: 0.5"/>
     <use xlink:href="#m8600eaecbc" x="92.669032" y="13.390971" style="fill: #4173b3; stroke: #909090; stroke-width: 0.5"/>
     <use xlink:href="#m8600eaecbc" x="96.122443" y="12.009781" style="fill: #4173b3; stroke: #909090; stroke-width: 0.5"/>
     <use xlink:href="#m8600eaecbc" x="99.575854" y="10.885919" style="fill: #4173b3; stroke: #909090; stroke-width: 0.5"/>
     <use xlink:href="#m8600eaecbc" x="103.029266" y="10.015594" style="fill: #4173b3; stroke: #909090; stroke-width: 0.5"/>
     <use xlink:href="#m8600eaecbc" x="106.482677" y="9.395936" style="fill: #4173b3; stroke: #909090; stroke-width: 0.5"/>
     <use xlink:href="#m8600eaecbc" x="109.936088" y="9.024935" style="fill: #4173b3; stroke: #909090; stroke-width: 0.5"/>
     <use xlink:href="#m8600eaecbc" x="113.3895" y="8.9014" style="fill: #4173b3; stroke: #909090; stroke-width: 0.5"/>
     <use xlink:href="#m8600eaecbc" x="116.842911" y="9.024935" style="fill: #4173b3; stroke: #909090; stroke-width: 0.5"/>
     <use xlink:href="#m8600eaecbc" x="120.296322" y="9.395936" style="fill: #4173b3; stroke: #909090; stroke-width: 0.5"/>
     <use xlink:href="#m8600eaecbc" x="123.749733" y="10.015594" style="fill: #4173b3; stroke: #909090; stroke-width: 0.5"/>
     <use xlink:href="#m8600eaecbc" x="127.203145" y="10.885919" style="fill: #4173b3; stroke: #909090; stroke-width: 0.5"/>
     <use xlink:href="#m8600eaecbc" x="130.656556" y="12.009781" style="fill: #4173b3; stroke: #909090; stroke-width: 0.5"/>
     <use xlink:href="#m8600eaecbc" x="134.109967" y="13.390971" style="fill: #4173b3; stroke: #909090; stroke-width: 0.5"/>
     <use xlink:href="#m8600eaecbc" x="137.563378" y="15.034275" style="fill: #4173b3; stroke: #909090; stroke-width: 0.5"/>
     <use xlink:href="#m8600eaecbc" x="141.01679" y="16.945586" style="fill: #4173b3; stroke: #909090; stroke-width: 0.5"/>
     <use xlink:href="#m8600eaecbc" x="144.470201" y="19.132044" style="fill: #4173b3; stroke: #909090; stroke-width: 0.5"/>
     <use xlink:href="#m8600eaecbc" x="147.923612" y="21.602212" style="fill: #4173b3; stroke: #909090; stroke-width: 0.5"/>
     <use xlink:href="#m8600eaecbc" x="151.377024" y="24.366318" style="fill: #4173b3; stroke: #909090; stroke-width: 0.5"/>
     <use xlink:href="#m8600eaecbc" x="154.830435" y="27.43656" style="fill: #4173b3; stroke: #909090; stroke-width: 0.5"/>
     <use xlink:href="#m8600eaecbc" x="158.283846" y="30.827519" style="fill: #4173b3; stroke: #909090; stroke-width: 0.5"/>
     <use xlink:href="#m8600eaecbc" x="161.737257" y="34.556705" style="fill: #4173b3; stroke: #909090; stroke-width: 0.5"/>
     <use xlink:href="#m8600eaecbc" x="165.190669" y="38.645318" style="fill: #4173b3; stroke: #909090; stroke-width: 0.5"/>
     <use xlink:href="#m8600eaecbc" x="168.64408" y="43.119313" style="fill: #4173b3; stroke: #909090; stroke-width: 0.5"/>
     <use xlink:href="#m8600eaecbc" x="172.097491" y="48.010935" style="fill: #4173b3; stroke: #909090; stroke-width: 0.5"/>
     <use xlink:href="#m8600eaecbc" x="175.550902" y="53.361048" style="fill: #4173b3; stroke: #909090; stroke-width: 0.5"/>
     <use xlink:href="#m8600eaecbc" x="179.004314" y="59.222782" style="fill: #4173b3; stroke: #909090; stroke-width: 0.5"/>
     <use xlink:href="#m8600eaecbc" x="182.457725" y="65.667656" style="fill: #4173b3; stroke: #909090; stroke-width: 0.5"/>
     <use xlink:href="#m8600eaecbc" x="185.911136" y="72.796647" style="fill: #4173b3; stroke: #909090; stroke-width: 0.5"/>
     <use xlink:href="#m8600eaecbc" x="189.364548" y="80.762582" style="fill: #4173b3; stroke: #909090; stroke-width: 0.5"/>
     <use xlink:href="#m8600eaecbc" x="192.817959" y="89.823617" style="fill: #4173b3; stroke: #909090; stroke-width: 0.5"/>
     <use xlink:href="#m8600eaecbc" x="196.27137" y="100.514352" style="fill: #4173b3; stroke: #909090; stroke-width: 0.5"/>
     <use xlink:href="#m8600eaecbc" x="199.724781" y="114.929392" style="fill: #4173b3; stroke: #909090; stroke-width: 0.5"/>
    </g>
   </g>
   <g id="patch_3">
    <path d="M 18.42069 120.230791 
L 18.42069 3.6 
" style="fill: none; stroke: #000000; stroke-linejoin: miter; stroke-linecap: square"/>
   </g>
   <g id="patch_4">
    <path d="M 208.35831 120.230791 
L 208.35831 3.6 
" style="fill: none; stroke: #000000; stroke-linejoin: miter; stroke-linecap: square"/>
   </g>
   <g id="patch_5">
    <path d="M 18.42069 120.230791 
L 208.35831 120.230791 
" style="fill: none; stroke: #000000; stroke-linejoin: miter; stroke-linecap: square"/>
   </g>
   <g id="patch_6">
    <path d="M 18.42069 3.6 
L 208.35831 3.6 
" style="fill: none; stroke: #000000; stroke-linejoin: miter; stroke-linecap: square"/>
   </g>
   <g id="legend_1">
    <g id="line2d_25">
     <g>
      <use xlink:href="#md6baff7404" x="65.911333" y="79.404852" style="fill: #e85c47; stroke: #909090; stroke-width: 0.5"/>
     </g>
    </g>
    <g id="text_13">
     <!-- $P_n/\max\{P_n\}$ -->
     <g transform="translate(85.911333 83.354852)scale(0.1 -0.1)">
      <defs>
       <path id="CMMI12-50" d="M 1894 2022 
L 2970 2022 
C 3853 2022 4736 2673 4736 3400 
C 4736 3898 4314 4352 3507 4352 
L 1530 4352 
C 1408 4352 1350 4352 1350 4230 
C 1350 4166 1408 4166 1504 4166 
C 1894 4166 1894 4115 1894 4045 
C 1894 4032 1894 3994 1869 3898 
L 1005 471 
C 947 249 934 185 486 185 
C 365 185 301 185 301 70 
C 301 0 358 0 397 0 
C 518 0 646 12 768 12 
L 1517 12 
C 1638 12 1773 0 1894 0 
C 1946 0 2016 0 2016 121 
C 2016 185 1958 185 1862 185 
C 1478 185 1472 230 1472 293 
C 1472 325 1478 369 1485 401 
L 1894 2022 
z
M 2355 3917 
C 2413 4153 2438 4166 2688 4166 
L 3322 4166 
C 3802 4166 4198 4013 4198 3534 
C 4198 3369 4115 2826 3821 2533 
C 3712 2418 3405 2176 2822 2176 
L 1920 2176 
L 2355 3917 
z
" transform="scale(0.015625)"/>
       <path id="CMMI12-3d" d="M 2746 4563 
C 2746 4569 2784 4665 2784 4678 
C 2784 4755 2720 4800 2669 4800 
C 2637 4800 2579 4800 2528 4659 
L 384 -1364 
C 384 -1370 346 -1466 346 -1479 
C 346 -1556 410 -1600 461 -1600 
C 499 -1600 557 -1594 602 -1460 
L 2746 4563 
z
" transform="scale(0.015625)"/>
       <path id="CMR17-6d" d="M 4326 1954 
C 4326 2276 4269 2816 3507 2816 
C 3072 2816 2771 2520 2656 2173 
L 2650 2173 
C 2573 2700 2195 2816 1837 2816 
C 1331 2816 1069 2424 973 2166 
L 966 2166 
L 966 2816 
L 211 2745 
L 211 2578 
C 589 2578 646 2540 646 2231 
L 646 443 
C 646 198 621 166 211 166 
L 211 0 
C 365 12 646 12 813 12 
C 979 12 1267 12 1421 0 
L 1421 166 
C 1011 166 986 192 986 443 
L 986 1678 
C 986 2269 1344 2713 1792 2713 
C 2266 2713 2317 2289 2317 1980 
L 2317 443 
C 2317 198 2291 166 1882 166 
L 1882 0 
C 2035 12 2317 12 2483 12 
C 2650 12 2938 12 3091 0 
L 3091 166 
C 2682 166 2656 192 2656 443 
L 2656 1678 
C 2656 2269 3014 2713 3462 2713 
C 3936 2713 3987 2289 3987 1980 
L 3987 443 
C 3987 198 3962 166 3552 166 
L 3552 0 
C 3706 12 3987 12 4154 12 
C 4320 12 4608 12 4762 0 
L 4762 166 
C 4352 166 4326 192 4326 443 
L 4326 1954 
z
" transform="scale(0.015625)"/>
       <path id="CMR17-61" d="M 2304 1656 
C 2304 2048 2304 2275 2035 2534 
C 1798 2751 1523 2816 1306 2816 
C 800 2816 435 2408 435 1977 
C 435 1740 627 1728 666 1728 
C 749 1728 896 1779 896 1958 
C 896 2118 774 2188 666 2188 
C 640 2188 608 2182 589 2176 
C 723 2594 1069 2713 1293 2713 
C 1613 2713 1965 2421 1965 1875 
L 1965 1632 
C 1587 1619 1133 1568 774 1373 
C 371 1147 256 822 256 576 
C 256 77 832 -64 1171 -64 
C 1523 -64 1850 135 1990 505 
C 2003 219 2182 -39 2464 -39 
C 2598 -39 2938 51 2938 563 
L 2938 926 
L 2822 926 
L 2822 557 
C 2822 161 2650 109 2566 109 
C 2304 109 2304 446 2304 732 
L 2304 1656 
z
M 1965 887 
C 1965 323 1568 38 1216 38 
C 896 38 646 278 646 576 
C 646 771 730 1114 1101 1322 
C 1408 1497 1760 1523 1965 1536 
L 1965 887 
z
" transform="scale(0.015625)"/>
       <path id="CMR17-78" d="M 1664 1491 
C 1856 1740 2074 2022 2253 2233 
C 2464 2476 2707 2579 2989 2585 
L 2989 2752 
C 2880 2745 2656 2739 2541 2739 
C 2368 2739 2170 2739 2022 2752 
L 2022 2585 
C 2112 2572 2163 2508 2163 2419 
C 2163 2304 2099 2233 2067 2188 
L 1594 1587 
L 1030 2323 
C 973 2393 973 2406 973 2438 
C 973 2515 1037 2579 1146 2585 
L 1146 2752 
C 992 2739 717 2739 557 2739 
C 384 2739 179 2739 38 2752 
L 38 2585 
C 384 2585 461 2560 614 2368 
L 1350 1414 
C 1363 1401 1395 1363 1395 1344 
C 1395 1318 838 633 768 544 
C 480 198 179 172 6 166 
L 6 0 
C 115 6 339 12 454 12 
C 582 12 864 12 979 0 
L 979 166 
C 941 172 838 185 838 332 
C 838 448 890 518 947 595 
L 1478 1248 
L 2035 524 
C 2086 454 2163 358 2163 313 
C 2163 224 2086 172 1984 166 
L 1984 0 
C 2138 12 2413 12 2573 12 
C 2746 12 2950 12 3091 0 
L 3091 166 
C 2771 166 2675 179 2522 377 
L 1664 1491 
z
" transform="scale(0.015625)"/>
       <path id="CMSY10-66" d="M 1811 3947 
C 1811 4203 1978 4614 2675 4659 
C 2707 4665 2733 4691 2733 4729 
C 2733 4800 2682 4800 2611 4800 
C 1971 4800 1389 4473 1382 3998 
L 1382 2536 
C 1382 2286 1382 2080 1126 1869 
C 902 1683 659 1670 518 1664 
C 486 1657 461 1631 461 1593 
C 461 1529 499 1529 563 1523 
C 986 1497 1293 1267 1363 954 
C 1382 884 1382 871 1382 641 
L 1382 -623 
C 1382 -891 1382 -1096 1690 -1338 
C 1939 -1530 2362 -1600 2611 -1600 
C 2682 -1600 2733 -1600 2733 -1530 
C 2733 -1466 2694 -1466 2630 -1460 
C 2227 -1434 1914 -1230 1830 -904 
C 1811 -847 1811 -834 1811 -604 
L 1811 737 
C 1811 1031 1760 1139 1555 1344 
C 1421 1478 1235 1542 1056 1593 
C 1581 1740 1811 2036 1811 2408 
L 1811 3947 
z
" transform="scale(0.015625)"/>
       <path id="CMSY10-67" d="M 1382 -749 
C 1382 -1005 1216 -1415 518 -1460 
C 486 -1466 461 -1492 461 -1530 
C 461 -1600 531 -1600 589 -1600 
C 1210 -1600 1805 -1287 1811 -800 
L 1811 659 
C 1811 908 1811 1113 2067 1324 
C 2291 1510 2534 1523 2675 1529 
C 2707 1535 2733 1561 2733 1599 
C 2733 1664 2694 1664 2630 1670 
C 2208 1696 1901 1926 1830 2240 
C 1811 2310 1811 2323 1811 2553 
L 1811 3820 
C 1811 4089 1811 4294 1504 4537 
C 1248 4735 806 4800 589 4800 
C 531 4800 461 4800 461 4729 
C 461 4665 499 4665 563 4659 
C 966 4633 1280 4428 1363 4102 
C 1382 4044 1382 4032 1382 3801 
L 1382 2457 
C 1382 2163 1434 2054 1638 1849 
C 1773 1715 1958 1651 2138 1599 
C 1613 1452 1382 1158 1382 787 
L 1382 -749 
z
" transform="scale(0.015625)"/>
      </defs>
      <use xlink:href="#CMMI12-50" transform="scale(0.996264)"/>
      <use xlink:href="#CMMI12-6e" transform="translate(62.877232 -14.943915)scale(0.697382)"/>
      <use xlink:href="#CMMI12-3d" transform="translate(104.136207 0)scale(0.996264)"/>
      <use xlink:href="#CMR17-6d" transform="translate(169.515531 0)scale(0.996264)"/>
      <use xlink:href="#CMR17-61" transform="translate(246.435121 0)scale(0.996264)"/>
      <use xlink:href="#CMR17-78" transform="translate(292.125598 0)scale(0.996264)"/>
      <use xlink:href="#CMSY10-66" transform="translate(340.418514 0)scale(0.996264)"/>
      <use xlink:href="#CMMI12-50" transform="translate(390.231897 0)scale(0.996264)"/>
      <use xlink:href="#CMMI12-6e" transform="translate(453.109129 -14.943915)scale(0.697382)"/>
      <use xlink:href="#CMSY10-67" transform="translate(494.368104 0)scale(0.996264)"/>
     </g>
    </g>
    <g id="line2d_26">
     <g>
      <use xlink:href="#m8600eaecbc" x="65.911333" y="92.295512" style="fill: #4173b3; stroke: #909090; stroke-width: 0.5"/>
     </g>
    </g>
    <g id="text_14">
     <!-- $S_{\alpha}(n)/\max\{S_{\alpha}(n)\}$ -->
     <g transform="translate(85.911333 96.245512)scale(0.1 -0.1)">
      <defs>
       <path id="CMMI12-53" d="M 4064 4422 
C 4064 4480 4019 4480 4006 4480 
C 3981 4480 3974 4473 3898 4377 
C 3859 4332 3597 4002 3590 3996 
C 3379 4409 2957 4480 2688 4480 
C 1875 4480 1139 3742 1139 3024 
C 1139 2547 1427 2268 1741 2160 
C 1811 2134 2189 2033 2381 1988 
C 2707 1899 2790 1874 2925 1734 
C 2950 1702 3078 1556 3078 1258 
C 3078 667 2528 57 1888 57 
C 1363 57 781 279 781 991 
C 781 1112 806 1264 826 1328 
C 826 1347 832 1378 832 1391 
C 832 1417 819 1448 768 1448 
C 710 1448 704 1436 678 1328 
L 352 25 
C 352 19 326 -64 326 -71 
C 326 -128 378 -128 390 -128 
C 416 -128 422 -122 499 -26 
L 794 356 
C 947 127 1280 -128 1875 -128 
C 2701 -128 3456 667 3456 1461 
C 3456 1728 3392 1963 3149 2198 
C 3014 2331 2899 2363 2310 2516 
C 1882 2630 1824 2649 1709 2751 
C 1600 2859 1517 3011 1517 3227 
C 1517 3761 2061 4307 2669 4307 
C 3296 4307 3590 3926 3590 3322 
C 3590 3157 3558 2986 3558 2960 
C 3558 2903 3610 2903 3629 2903 
C 3686 2903 3693 2922 3718 3024 
L 4064 4422 
z
" transform="scale(0.015625)"/>
       <path id="CMMI12-b" d="M 2963 1615 
C 2963 2234 2611 2816 1933 2816 
C 1094 2816 256 1902 256 996 
C 256 440 602 -64 1254 -64 
C 1651 -64 2125 89 2579 472 
C 2669 115 2867 -64 3142 -64 
C 3488 -64 3661 293 3661 376 
C 3661 434 3616 434 3597 434 
C 3546 434 3539 415 3520 364 
C 3462 204 3315 64 3162 64 
C 2963 64 2963 472 2963 862 
C 3616 1641 3770 2445 3770 2451 
C 3770 2509 3718 2509 3699 2509 
C 3642 2509 3635 2490 3610 2375 
C 3526 2094 3360 1596 2963 1072 
L 2963 1615 
z
M 2560 625 
C 1997 121 1491 64 1267 64 
C 813 64 685 466 685 766 
C 685 1040 826 1692 1024 2043 
C 1286 2490 1645 2687 1933 2687 
C 2554 2687 2554 1877 2554 1340 
C 2554 1181 2547 1015 2547 855 
C 2547 728 2554 696 2560 625 
z
" transform="scale(0.015625)"/>
       <path id="CMR17-28" d="M 1958 -1562 
C 1958 -1556 1958 -1543 1939 -1524 
C 1645 -1223 858 -403 858 1596 
C 858 3595 1632 4408 1946 4729 
C 1946 4735 1958 4748 1958 4767 
C 1958 4787 1939 4800 1914 4800 
C 1843 4800 1299 4325 986 3620 
C 666 2909 576 2218 576 1603 
C 576 1141 621 360 1005 -467 
C 1312 -1133 1837 -1600 1914 -1600 
C 1946 -1600 1958 -1588 1958 -1562 
z
" transform="scale(0.015625)"/>
       <path id="CMR17-29" d="M 1683 1596 
C 1683 2057 1638 2839 1254 3665 
C 947 4332 422 4800 346 4800 
C 326 4800 301 4793 301 4761 
C 301 4748 307 4742 314 4729 
C 621 4408 1402 3595 1402 1603 
C 1402 -396 627 -1210 314 -1530 
C 307 -1543 301 -1549 301 -1562 
C 301 -1594 326 -1600 346 -1600 
C 416 -1600 960 -1127 1274 -422 
C 1594 289 1683 981 1683 1596 
z
" transform="scale(0.015625)"/>
      </defs>
      <use xlink:href="#CMMI12-53" transform="scale(0.996264)"/>
      <use xlink:href="#CMMI12-b" transform="translate(59.994488 -14.943915)scale(0.697382)"/>
      <use xlink:href="#CMR17-28" transform="translate(104.369144 0)scale(0.996264)"/>
      <use xlink:href="#CMMI12-6e" transform="translate(139.649912 0)scale(0.996264)"/>
      <use xlink:href="#CMR17-29" transform="translate(197.879959 0)scale(0.996264)"/>
      <use xlink:href="#CMMI12-3d" transform="translate(233.160727 0)scale(0.996264)"/>
      <use xlink:href="#CMR17-6d" transform="translate(298.540051 0)scale(0.996264)"/>
      <use xlink:href="#CMR17-61" transform="translate(375.459641 0)scale(0.996264)"/>
      <use xlink:href="#CMR17-78" transform="translate(421.150118 0)scale(0.996264)"/>
      <use xlink:href="#CMSY10-66" transform="translate(469.443034 0)scale(0.996264)"/>
      <use xlink:href="#CMMI12-53" transform="translate(519.256417 0)scale(0.996264)"/>
      <use xlink:href="#CMMI12-b" transform="translate(579.250905 -14.943915)scale(0.697382)"/>
      <use xlink:href="#CMR17-28" transform="translate(623.625561 0)scale(0.996264)"/>
      <use xlink:href="#CMMI12-6e" transform="translate(658.906329 0)scale(0.996264)"/>
      <use xlink:href="#CMR17-29" transform="translate(717.136376 0)scale(0.996264)"/>
      <use xlink:href="#CMSY10-67" transform="translate(752.417144 0)scale(0.996264)"/>
     </g>
    </g>
   </g>
  </g>
 </g>
 <defs>
  <clipPath id="pf1cfad7a88">
   <rect x="18.42069" y="3.6" width="189.93762" height="116.630791"/>
  </clipPath>
 </defs>
</svg>
